<svg height="569" viewBox="0 0 471 569" width="471" xmlns="http://www.w3.org/2000/svg" xmlns:xlink="http://www.w3.org/1999/xlink"><filter id="a" height="115.4" name="filter-4" width="117.4" x="-8.7" y="-7.7"><feOffset in="SourceAlpha" result="shadowOffsetOuter1"/><feGaussianBlur in="shadowOffsetOuter1" result="shadowBlurOuter1" stdDeviation="5"/><feColorMatrix in="shadowBlurOuter1" values="0 0 0 0 0 0 0 0 0 0 0 0 0 0 0 0 0 0 0.19 0"/></filter><filter id="b" height="118.2" name="filter-8" width="118.2" x="-9.1" y="-9.1"><feOffset in="SourceAlpha" result="shadowOffsetOuter1"/><feGaussianBlur in="shadowOffsetOuter1" result="shadowBlurOuter1" stdDeviation="7.5"/><feColorMatrix in="shadowBlurOuter1" values="0 0 0 0 0 0 0 0 0 0 0 0 0 0 0 0 0 0 0.16 0"/></filter><path d="m470 190.61c5.6 157.82-137 269.39-234 335.39s-102 60-194-48.5 34.08-193-8.5-259-59.1-127.9 42.5-188c82-48.5 386-64 394 160.11z" fill="#40c4ff"/><g filter="url(#a)"><path d="m104 165h172v188.91a6.09 6.09 0 0 1 -6.08 6.09h-159.84a6.1 6.1 0 0 1 -6.08-6.09z"/></g><path d="m104 165h172v188.91a6.09 6.09 0 0 1 -6.08 6.09h-159.84a6.1 6.1 0 0 1 -6.08-6.09z" fill="#43347f"/><path d="m110.19 148h159.73a6.09 6.09 0 0 1 6.08 6.07v11.93h-172v-11.93a6.11 6.11 0 0 1 6.19-6.07z" fill="#fff"/><path d="m125.93 186.62h89.62v3.5h-89.62z" fill="#40c4ff"/><path d="m154.39 193.21h51.26v3.5h-51.26z" fill="#40c4ff"/><path d="m146.86 199.8h107.37v3.5h-107.37z" fill="#40c4ff"/><path d="m146.86 206.49h18.88v3.5h-18.88z" fill="#40c4ff"/><path d="m125.93 222.87h42.8v3.5h-42.8z" fill="#40c4ff"/><path d="m146.86 229.46h100.97v3.5h-100.97z" fill="#40c4ff"/><path d="m146.86 236.05h83.85v3.5h-83.85z" fill="#40c4ff"/><path d="m125.93 252.52h67.96v3.5h-67.96z" fill="#40c4ff"/><path d="m146.86 259.11h73.02v3.5h-73.02z" fill="#40c4ff"/><path d="m146.86 265.7h21.97v3.5h-21.97z" fill="#40c4ff"/><path d="m160.06 272.4h83.54v3.5h-83.54z" fill="#40c4ff"/><path d="m146.86 278.99h30.22v3.5h-30.22z" fill="#40c4ff"/><path d="m125.93 295.46h47.03v3.5h-47.03z" fill="#40c4ff"/><path d="m147.07 302.05h58.68v3.5h-58.68z" fill="#40c4ff"/><path d="m147.07 308.64h36.1v3.5h-36.1z" fill="#40c4ff"/><g filter="url(#b)"><path d="m138.16 359.06 175-174.9a4.05 4.05 0 0 1 5.68 0l64 64a4.05 4.05 0 0 1 0 5.68l-175 175a4.05 4.05 0 0 1 -5.68 0l-64-64a4.19 4.19 0 0 1 0-5.78z"/></g><path d="m138.16 359.06 175-174.9a4.05 4.05 0 0 1 5.68 0l64 64a4.05 4.05 0 0 1 0 5.68l-175 175a4.05 4.05 0 0 1 -5.68 0l-64-64a4.19 4.19 0 0 1 0-5.78z" fill="#fff"/><g fill="#cccbca"><path d="m149.68 360 6.18-6.18a2 2 0 0 1 2.82 0l6.17 6.17a2 2 0 0 1 0 2.83l-6.17 6.18a2 2 0 0 1 -2.83 0l-6.17-6.17a2 2 0 0 1 0-2.83z"/><path d="m309.85 223.51 6.17-6.17a2 2 0 0 1 2.83 0l6.17 6.17a2 2 0 0 1 0 2.83l-6.17 6.17a2 2 0 0 1 -2.83 0l-6.17-6.17a2 2 0 0 1 0-2.83z"/><path d="m297.94 235.36 6.17-6.17a2 2 0 0 1 2.83 0l6.16 6.16a2 2 0 0 1 0 2.83l-6.17 6.17a2 2 0 0 1 -2.82 0l-6.17-6.17a2 2 0 0 1 0-2.82z"/><path d="m286.15 247.19 6.17-6.17a2 2 0 0 1 2.83 0l6.16 6.17a2 2 0 0 1 0 2.83l-6.17 6.17a2 2 0 0 1 -2.83 0l-6.16-6.19a2 2 0 0 1 0-2.81z"/><path d="m274.23 259 6.17-6.17a2 2 0 0 1 2.83 0l6.17 6.17a2 2 0 0 1 0 2.83l-6.17 6.17a2 2 0 0 1 -2.83 0l-6.17-6.16a2 2 0 0 1 0-2.84z"/><path d="m262.46 270.88 6.17-6.17a2 2 0 0 1 2.83 0l6.17 6.17a2 2 0 0 1 0 2.83l-6.17 6.17a2 2 0 0 1 -2.83 0l-6.17-6.17a2 2 0 0 1 0-2.83z"/><path d="m250.55 282.73 6.17-6.17a2 2 0 0 1 2.82 0l6.17 6.17a2 2 0 0 1 0 2.82l-6.17 6.17a2 2 0 0 1 -2.83 0l-6.16-6.16a2 2 0 0 1 0-2.83z"/><path d="m238.77 294.57 6.17-6.17a2 2 0 0 1 2.83 0l6.17 6.17a2 2 0 0 1 0 2.83l-6.17 6.17a2 2 0 0 1 -2.83 0l-6.17-6.17a2 2 0 0 1 0-2.83z"/><path d="m226.85 306.41 6.17-6.17a2 2 0 0 1 2.83 0l6.17 6.17a2 2 0 0 1 0 2.83l-6.17 6.17a2 2 0 0 1 -2.83 0l-6.17-6.17a2 2 0 0 1 0-2.83z"/><path d="m215.07 318.26 6.17-6.18a2 2 0 0 1 2.83 0l6.17 6.17a2 2 0 0 1 0 2.83l-6.17 6.17a2 2 0 0 1 -2.83 0l-6.17-6.17a2 2 0 0 1 0-2.82z"/><path d="m203.16 330.1 6.17-6.17a2 2 0 0 1 2.83 0l6.16 6.17a2 2 0 0 1 0 2.83l-6.17 6.17a2 2 0 0 1 -2.82 0l-6.17-6.17a2 2 0 0 1 0-2.83z"/><path d="m191.39 342 6.17-6.17a2 2 0 0 1 2.83 0l6.16 6.16a2 2 0 0 1 0 2.83l-6.17 6.17a2 2 0 0 1 -2.82 0l-6.17-6.17a2 2 0 0 1 0-2.82z"/><path d="m179.47 353.79 6.17-6.17a2 2 0 0 1 2.83 0l6.17 6.17a2 2 0 0 1 0 2.83l-6.17 6.17a2 2 0 0 1 -2.83 0l-6.17-6.17a2 2 0 0 1 0-2.83z"/><path d="m194.17 362.79 6.17-6.17a2 2 0 0 1 2.83 0l6.17 6.17a2 2 0 0 1 0 2.83l-6.17 6.17a2 2 0 0 1 -2.83 0l-6.17-6.17a2 2 0 0 1 0-2.83z"/><path d="m200.3 380.42 6.17-6.17a2 2 0 0 1 2.83 0l6.16 6.16a2 2 0 0 1 0 2.83l-6.17 6.17a2 2 0 0 1 -2.83 0l-6.16-6.17a2 2 0 0 1 0-2.82z"/><path d="m212.06 368.57 6.17-6.17a2 2 0 0 1 2.83 0l6.17 6.17a2 2 0 0 1 0 2.83l-6.17 6.17a2 2 0 0 1 -2.83 0l-6.17-6.17a2 2 0 0 1 0-2.83z"/><path d="m224 356.73 6.17-6.17a2 2 0 0 1 2.83 0l6.17 6.17a2 2 0 0 1 0 2.82l-6.17 6.17a2 2 0 0 1 -2.82 0l-6.18-6.16a2 2 0 0 1 0-2.83z"/><path d="m235.76 344.88 6.17-6.17a2 2 0 0 1 2.83 0l6.17 6.17a2 2 0 0 1 0 2.83l-6.17 6.17a2 2 0 0 1 -2.83 0l-6.17-6.17a2 2 0 0 1 0-2.83z"/><path d="m247.68 333 6.17-6.17a2 2 0 0 1 2.82 0l6.17 6.17a2 2 0 0 1 0 2.82l-6.17 6.18a2 2 0 0 1 -2.83 0l-6.16-6.16a2 2 0 0 1 0-2.84z"/><path d="m259.45 321.2 6.17-6.17a2 2 0 0 1 2.83 0l6.17 6.16a2 2 0 0 1 0 2.83l-6.17 6.17a2 2 0 0 1 -2.83 0l-6.17-6.19a2 2 0 0 1 0-2.8z"/><path d="m271.37 309.35 6.17-6.17a2 2 0 0 1 2.83 0l6.16 6.17a2 2 0 0 1 0 2.83l-6.17 6.17a2 2 0 0 1 -2.82 0l-6.17-6.17a2 2 0 0 1 0-2.83z"/><path d="m283.14 297.51 6.17-6.17a2 2 0 0 1 2.83 0l6.17 6.16a2 2 0 0 1 0 2.83l-6.17 6.17a2 2 0 0 1 -2.83 0l-6.17-6.16a2 2 0 0 1 0-2.83z"/><path d="m295.05 285.66 6.17-6.17a2 2 0 0 1 2.83 0l6.17 6.17a2 2 0 0 1 0 2.83l-6.17 6.17a2 2 0 0 1 -2.83 0l-6.17-6.17a2 2 0 0 1 0-2.83z"/><path d="m306.82 273.82 6.17-6.18a2 2 0 0 1 2.83 0l6.17 6.17a2 2 0 0 1 0 2.83l-6.17 6.17a2 2 0 0 1 -2.83 0l-6.17-6.17a2 2 0 0 1 0-2.82z"/><path d="m318.66 262 6.17-6.17a2 2 0 0 1 2.83 0l6.17 6.17a2 2 0 0 1 0 2.83l-6.17 6.17a2 2 0 0 1 -2.83 0l-6.17-6.17a2 2 0 0 1 0-2.83z"/><path d="m330.51 250.19 21-21a2 2 0 0 1 2.83 0l6.16 6.17a2 2 0 0 1 0 2.83l-21 21a2 2 0 0 1 -2.83 0l-6.16-6.19a2 2 0 0 1 0-2.81z"/><path d="m206.09 351 6.17-6.17a2 2 0 0 1 2.83 0l6.16 6.16a2 2 0 0 1 0 2.83l-6.17 6.17a2 2 0 0 1 -2.82 0l-6.17-6.17a2 2 0 0 1 0-2.82z"/><path d="m217.86 339.1 6.17-6.17a2 2 0 0 1 2.82 0l6.15 6.17a2 2 0 0 1 0 2.83l-6.17 6.17a2 2 0 0 1 -2.83 0l-6.16-6.17a2 2 0 0 1 .02-2.83z"/><path d="m229.77 327.25 6.17-6.17a2 2 0 0 1 2.83 0l6.16 6.17a2 2 0 0 1 0 2.83l-6.17 6.17a2 2 0 0 1 -2.82 0l-6.17-6.17a2 2 0 0 1 0-2.83z"/><path d="m241.54 315.41 6.17-6.17a2 2 0 0 1 2.83 0l6.17 6.17a2 2 0 0 1 0 2.83l-6.17 6.17a2 2 0 0 1 -2.83 0l-6.17-6.17a2 2 0 0 1 0-2.83z"/><path d="m253.45 303.56 6.17-6.17a2 2 0 0 1 2.83 0l6.17 6.17a2 2 0 0 1 0 2.83l-6.17 6.17a2 2 0 0 1 -2.83 0l-6.17-6.17a2 2 0 0 1 0-2.83z"/><path d="m265.23 291.72 6.17-6.17a2 2 0 0 1 2.82 0l6.17 6.17a2 2 0 0 1 0 2.82l-6.17 6.18a2 2 0 0 1 -2.83 0l-6.16-6.17a2 2 0 0 1 0-2.83z"/><path d="m277.14 279.87 6.17-6.17a2 2 0 0 1 2.83 0l6.17 6.17a2 2 0 0 1 0 2.83l-6.17 6.17a2 2 0 0 1 -2.83 0l-6.17-6.17a2 2 0 0 1 0-2.83z"/><path d="m288.9 268 6.17-6.17a2 2 0 0 1 2.83 0l6.17 6.16a2 2 0 0 1 0 2.83l-6.17 6.18a2 2 0 0 1 -2.83 0l-6.17-6.17a2 2 0 0 1 0-2.83z"/><path d="m300.75 256.25 6.17-6.17a2 2 0 0 1 2.83 0l6.17 6.17a2 2 0 0 1 0 2.83l-6.17 6.17a2 2 0 0 1 -2.83 0l-6.17-6.17a2 2 0 0 1 0-2.83z"/><path d="m312.59 244.34 6.17-6.18a2 2 0 0 1 2.83 0l6.17 6.17a2 2 0 0 1 0 2.83l-6.17 6.17a2 2 0 0 1 -2.83 0l-6.17-6.17a2 2 0 0 1 0-2.82z"/><path d="m324.43 232.56 6.17-6.17a2 2 0 0 1 2.83 0l6.17 6.17a2 2 0 0 1 0 2.83l-6.17 6.17a2 2 0 0 1 -2.83 0l-6.17-6.17a2 2 0 0 1 0-2.83z"/><path d="m161.88 347.83 6.17-6.17a2 2 0 0 1 2.83 0l6.17 6.17a2 2 0 0 1 0 2.83l-6.17 6.17a2 2 0 0 1 -2.83 0l-6.17-6.17a2 2 0 0 1 0-2.83z"/><path d="m173.14 335.64 6.17-6.17a2 2 0 0 1 2.83 0l6.17 6.16a2 2 0 0 1 0 2.83l-6.17 6.17a2 2 0 0 1 -2.83 0l-6.17-6.16a2 2 0 0 1 0-2.83z"/><path d="m185.34 324.38 6.17-6.17a2 2 0 0 1 2.83 0l6.17 6.17a2 2 0 0 1 0 2.83l-6.17 6.17a2 2 0 0 1 -2.83 0l-6.17-6.17a2 2 0 0 1 0-2.83z"/><path d="m197.54 312.19 6.17-6.17a2 2 0 0 1 2.83 0l6.16 6.16a2 2 0 0 1 0 2.83l-6.17 6.17a2 2 0 0 1 -2.83 0l-6.16-6.18a2 2 0 0 1 0-2.81z"/><path d="m208.8 300.93 6.17-6.17a2 2 0 0 1 2.82 0l6.17 6.17a2 2 0 0 1 0 2.83l-6.17 6.17a2 2 0 0 1 -2.83 0l-6.16-6.17a2 2 0 0 1 0-2.83z"/><path d="m221 288.74 6.17-6.17a2 2 0 0 1 2.83 0l6.17 6.16a2 2 0 0 1 0 2.83l-6.17 6.17a2 2 0 0 1 -2.83 0l-6.17-6.17a2 2 0 0 1 0-2.82z"/><path d="m233.19 276.54 6.17-6.17a2 2 0 0 1 2.83 0l6.17 6.17a2 2 0 0 1 0 2.83l-6.17 6.17a2 2 0 0 1 -2.83 0l-6.17-6.17a2 2 0 0 1 0-2.83z"/><path d="m244.45 265.29 6.17-6.17a2 2 0 0 1 2.83 0l6.17 6.16a2 2 0 0 1 0 2.83l-6.17 6.17a2 2 0 0 1 -2.83 0l-6.17-6.17a2 2 0 0 1 0-2.82z"/><path d="m256.65 253.09 6.17-6.17a2 2 0 0 1 2.83 0l6.16 6.17a2 2 0 0 1 0 2.83l-6.17 6.17a2 2 0 0 1 -2.82 0l-6.17-6.17a2 2 0 0 1 0-2.83z"/><path d="m267.91 240.9 6.17-6.17a2 2 0 0 1 2.83 0l6.16 6.16a2 2 0 0 1 0 2.83l-6.17 6.17a2 2 0 0 1 -2.83 0l-6.16-6.16a2 2 0 0 1 0-2.83z"/><path d="m280.1 229.64 6.17-6.17a2 2 0 0 1 2.83 0l6.17 6.17a2 2 0 0 1 0 2.83l-6.17 6.17a2 2 0 0 1 -2.83 0l-6.17-6.17a2 2 0 0 1 0-2.83z"/><path d="m292.3 217.45 6.17-6.17a2 2 0 0 1 2.83 0l6.17 6.16a2 2 0 0 1 0 2.83l-6.17 6.17a2 2 0 0 1 -2.83 0l-6.17-6.17a2 2 0 0 1 0-2.82z"/><path d="m303.56 205.55 12.1-12.1a2 2 0 0 1 2.83 0l6.16 6.17a2 2 0 0 1 0 2.83l-12.09 12.1a2 2 0 0 1 -2.83 0l-6.17-6.17a2 2 0 0 1 0-2.83z"/><path d="m161.73 371.5 12.1-12.09a2 2 0 0 1 2.83 0l6.17 6.16a2 2 0 0 1 0 2.83l-12.1 12.1a2 2 0 0 1 -2.83 0l-6.17-6.17a2 2 0 0 1 0-2.83z"/><path d="m173.55 383.42 14.95-14.95a2 2 0 0 1 2.82 0l6.17 6.17a2 2 0 0 1 0 2.83l-15 14.95a2 2 0 0 1 -2.83 0l-6.16-6.17a2 2 0 0 1 .05-2.83z"/><path d="m185.35 395.23 9.17-9.17a2 2 0 0 1 2.83 0l6.17 6.17a2 2 0 0 1 0 2.82l-9.17 9.17a2 2 0 0 1 -2.83 0l-6.17-6.16a2 2 0 0 1 0-2.83z"/><path d="m197.22 407.05 6.17-6.17a2 2 0 0 1 2.83 0l7.71 7.7a2 2 0 0 1 0 2.83l-6.17 6.17a2 2 0 0 1 -2.83 0l-7.71-7.7a2 2 0 0 1 0-2.83z"/><path d="m209 395.26 6.17-6.17a2 2 0 0 1 2.83 0l7.71 7.71a2 2 0 0 1 0 2.83l-6.17 6.17a2 2 0 0 1 -2.83 0l-7.71-7.71a2 2 0 0 1 0-2.83z"/><path d="m220.85 383.48 6.17-6.17a2 2 0 0 1 2.82 0l7.71 7.7a2 2 0 0 1 0 2.83l-6.17 6.16a2 2 0 0 1 -2.83 0l-7.7-7.7a2 2 0 0 1 0-2.82z"/><path d="m232.66 371.67 9.24-9.24a2 2 0 0 1 2.83 0l7.7 7.7a2 2 0 0 1 0 2.83l-9.24 9.24a2 2 0 0 1 -2.83 0l-7.7-7.7a2 2 0 0 1 0-2.83z"/><path d="m247.64 356.75 53.58-53.57a2 2 0 0 1 2.83 0l7.7 7.7a2 2 0 0 1 0 2.83l-53.57 53.58a2 2 0 0 1 -2.83 0l-7.71-7.71a2 2 0 0 1 0-2.83z"/><path d="m306.81 297.5 9.25-9.25a2 2 0 0 1 2.82 0l7.71 7.71a2 2 0 0 1 0 2.83l-9.25 9.21a2 2 0 0 1 -2.82 0l-7.71-7.71a2 2 0 0 1 0-2.79z"/><path d="m321.72 282.63 6.17-6.17a2 2 0 0 1 2.83 0l7.71 7.7a2 2 0 0 1 0 2.83l-6.17 6.17a2 2 0 0 1 -2.83 0l-7.71-7.7a2 2 0 0 1 0-2.83z"/><path d="m339.12 276.4 6.17-6.17a2 2 0 0 1 2.83 0l2.07 2.08a2 2 0 0 1 0 2.82l-6.19 6.17a2 2 0 0 1 -2.83 0l-2.07-2.07a2 2 0 0 1 .02-2.83z"/><path d="m351.28 264.93 6.17-6.17a2 2 0 0 1 2.83 0l1.78 1.78a2 2 0 0 1 0 2.82l-6.17 6.17a2 2 0 0 1 -2.83 0l-1.78-1.78a2 2 0 0 1 0-2.82z"/><path d="m345.33 258.91 6.17-6.17a2 2 0 0 1 2.83 0l1.78 1.78a2 2 0 0 1 0 2.83l-6.17 6.17a2 2 0 0 1 -2.83 0l-1.78-1.78a2 2 0 0 1 0-2.83z"/><path d="m362.8 252.76 6.17-6.17a2 2 0 0 1 2.83 0l2.07 2.07a2 2 0 0 1 0 2.83l-6.17 6.17a2 2 0 0 1 -2.83 0l-2.07-2.08a2 2 0 0 1 0-2.82z"/><path d="m342.45 229.69-9-9a2 2 0 0 0 -2.79 0 2 2 0 0 1 -2.79 0l-6.2-6.18a2 2 0 0 1 0-2.83l6.18-6.17a2 2 0 0 1 2.83 0l18 18a2 2 0 0 1 0 2.83l-3.37 3.38a2 2 0 0 1 -2.83 0z"/></g><circle cx="113.5" cy="157.5" fill="#f77777" r="3.5"/><circle cx="124.5" cy="157.5" fill="#f9d373" r="3.5"/><circle cx="134.5" cy="157.5" fill="#8df774" r="3.5"/><path d="m421 282.87c7.36-16.71 15.85-35.69 20.82-60.75 5-24.86 1.56-44.05-10.36-56.84-17.19-18.56-50.85-24.13-106-17.74-22.89 2.69-39.05 11.25-47.85 25.48-14.4 23.1-4 52.29-3.63 53.53l5.8-2.06c-.1-.21-9.63-27.64 3.11-48.17 7.77-12.58 22.37-20.11 43.3-22.59 52.2-6.08 85.14-.93 100.68 15.78 10.56 11.45 13.46 28.26 8.8 51.47-4.87 24.34-13.15 43-20.4 59.41-13 29.48-23.5 53-7.18 91.36q2.14-2.89 4.25-5.83c-13.14-33.86-3.87-54.75 8.66-83.05z" fill="#fff"/><path d="m422.54 281.9c7.54-17 16.11-36.42 21.17-62s1.55-45-10.53-58.1c-17.56-19-51.85-24.77-107.93-18.16-23.34 2.78-39.76 11.45-48.75 26-14.56 23.63-3.51 55-3.1 56.24l3.1-3.1s-9.19-27.44 5.37-49.84c8.16-12.59 22.72-20.53 44.1-23 53.19-6.29 86.76-1 102.56 16.1 10.74 11.66 14.87 30.85 10.12 54.59-4.95 24.87-13.22 45.09-20.65 61.91-13.06 29.33-22.36 48.88-7.47 85.91.85-1.18 1.71-2.36 2.55-3.55-12.4-33.56-3.08-54.61 9.46-83z" fill="#d8d8d8"/><path d="m116.38 194-2.38-2.09 3.68-3.86-3.68-3.96 2.38-2.09 5.62 6.05z" fill="#40c4ff"/></svg>